HIERARCHY
ROOT joint_0
{
	OFFSET 0.000000 0.000000 0.000000
	CHANNELS 6 Xposition Yposition Zposition Zrotation Yrotation Xrotation 
	JOINT joint_1
	{
		OFFSET 7.683380 1.521202 101.454956
		CHANNELS 3 Zrotation Yrotation Xrotation
		JOINT joint_2
		{
			OFFSET -4.816528 0.859650 92.807007
			CHANNELS 3 Zrotation Yrotation Xrotation
			JOINT joint_3
			{
				OFFSET -7.237778 1.114670 92.543091
				CHANNELS 3 Zrotation Yrotation Xrotation
				JOINT joint_4
				{
					OFFSET 0.479660 2.971886 127.844971
					CHANNELS 3 Zrotation Yrotation Xrotation
					JOINT joint_5
					{
						OFFSET 15.211349 9.937172 76.390015
						CHANNELS 3 Zrotation Yrotation Xrotation
						End Site
						{
							OFFSET 0.000000 0.000000 0.000000
						}
					}
				}
				JOINT joint_6
				{
					OFFSET 2.887054 -26.053230 72.331909
					CHANNELS 3 Zrotation Yrotation Xrotation
					JOINT joint_7
					{
						OFFSET 10.229767 -132.540291 -13.979004
						CHANNELS 3 Zrotation Yrotation Xrotation
						JOINT joint_8
						{
							OFFSET 17.695633 -10.988861 -262.204956
							CHANNELS 3 Zrotation Yrotation Xrotation
							JOINT joint_9
							{
								OFFSET 11.003433 -0.031860 -255.909973
								CHANNELS 3 Zrotation Yrotation Xrotation
								End Site
								{
									OFFSET 0.000000 0.000000 0.000000
								}
							}
						}
					}
				}
				JOINT joint_10
				{
					OFFSET -2.092239 29.348854 71.062988
					CHANNELS 3 Zrotation Yrotation Xrotation
					JOINT joint_11
					{
						OFFSET -11.853149 131.935837 -17.877075
						CHANNELS 3 Zrotation Yrotation Xrotation
						JOINT joint_12
						{
							OFFSET 14.084503 10.700203 -262.437012
							CHANNELS 3 Zrotation Yrotation Xrotation
							JOINT joint_13
							{
								OFFSET 48.202347 13.087273 -251.229919
								CHANNELS 3 Zrotation Yrotation Xrotation
								End Site
								{
									OFFSET 0.000000 0.000000 0.000000
								}
							}
						}
					}
				}
			}
		}
	}
	JOINT joint_14
	{
		OFFSET 4.150818 -83.296913 -102.580017
		CHANNELS 3 Zrotation Yrotation Xrotation
		JOINT joint_15
		{
			OFFSET -36.423187 -7.342392 -449.858948
			CHANNELS 3 Zrotation Yrotation Xrotation
			JOINT joint_16
			{
				OFFSET -41.100235 -7.280350 -426.202026
				CHANNELS 3 Zrotation Yrotation Xrotation
				JOINT joint_17
				{
					OFFSET 175.972961 13.159744 -75.358000
					CHANNELS 3 Zrotation Yrotation Xrotation
					End Site
					{
						OFFSET 0.000000 0.000000 0.000000
					}
				}
			}
		}
	}
	JOINT joint_18
	{
		OFFSET -9.062592 83.477568 -102.093018
		CHANNELS 3 Zrotation Yrotation Xrotation
		JOINT joint_19
		{
			OFFSET -39.145699 -6.092751 -449.645996
			CHANNELS 3 Zrotation Yrotation Xrotation
			JOINT joint_20
			{
				OFFSET -32.926178 -7.016375 -426.911980
				CHANNELS 3 Zrotation Yrotation Xrotation
				JOINT joint_21
				{
					OFFSET 176.289299 16.780729 -73.883997
					CHANNELS 3 Zrotation Yrotation Xrotation
					End Site
					{
						OFFSET 0.000000 0.000000 0.000000
					}
				}
			}
		}
	}
}
MOTION
Frames: 6
Frame Time: 0.016667
770.983887 -92.078354 1076.275024 -5.522908 4.984561 1.027428 -1.098588 5.302776 3.987243 -1.523492 -1.137387 -0.805354 -1.442299 1.097327 0.635092 -0.374354 -2.535079 3.411888 0.000000 0.000000 0.000000 -2.006520 -2.964518 -1.911965 2.634978 -3.097518 1.515134 5.012348 -54.514681 -2.927177 0.000000 0.000000 0.000000 0.502860 1.940408 0.824704 -0.368373 1.118620 -7.043206 -0.097186 1.811365 -1.220272 0.000000 0.000000 0.000000 1.707465 -16.386239 -1.711258 0.988851 14.393614 0.055212 1.062605 -0.554516 0.486260 0.000000 0.000000 0.000000 2.020129 -13.070028 0.769724 1.977280 13.843451 -3.110539 1.857459 -1.878579 0.944265 0.000000 0.000000 0.000000 
775.299683 -92.498558 1076.437988 -5.964840 6.051754 1.000563 -1.385181 5.473454 4.200286 -1.889286 -1.229104 -0.876011 -1.798197 1.160314 0.709503 -0.225707 -3.535317 3.468858 0.000000 0.000000 0.000000 -1.523567 -2.461932 -2.038562 3.466956 -2.482420 2.468103 5.630368 -56.293107 -3.994578 0.000000 0.000000 0.000000 -0.667398 2.665220 2.815464 -0.480513 1.652885 -9.171576 -0.240098 0.400116 -1.407878 0.000000 0.000000 0.000000 1.906715 -17.613037 -1.948141 1.113869 14.864479 0.488331 1.222446 -0.562485 0.553062 0.000000 0.000000 0.000000 2.146969 -13.912601 0.943311 2.144468 13.775857 -3.455675 1.986912 -1.805761 0.990352 0.000000 0.000000 0.000000 
780.230164 -92.329033 1076.988037 -6.707524 7.016477 0.849293 -1.576675 5.352668 4.290834 -2.154372 -1.193208 -0.909167 -2.055458 1.094089 0.763732 -0.154001 -4.211896 3.697221 0.000000 0.000000 0.000000 -0.647060 -1.658577 -2.011212 4.358801 -1.574730 2.897527 6.296767 -60.992722 -6.192146 0.000000 0.000000 0.000000 -0.632994 3.500180 4.013195 -0.727439 2.275605 -10.386035 -0.670212 -2.762140 -2.436785 0.000000 0.000000 0.000000 2.264165 -19.389762 -2.162634 1.377546 16.515303 1.061502 1.525946 -0.499239 0.672509 0.000000 0.000000 0.000000 2.319788 -14.905604 1.147789 2.355696 14.312905 -3.643832 2.170180 -1.807198 1.064293 0.000000 0.000000 0.000000 
785.819519 -91.720573 1077.810059 -7.659316 7.937548 0.635459 -1.750341 5.040138 4.226192 -2.393486 -1.129169 -0.863693 -2.298063 0.962736 0.796010 -0.137496 -4.677252 4.037894 0.000000 0.000000 0.000000 0.703642 -0.605209 -1.706482 5.397956 -0.445812 2.893904 6.982048 -67.919808 -9.456951 0.000000 0.000000 0.000000 0.120641 4.473436 4.568001 -0.928657 3.055698 -10.922567 -1.168107 -7.388614 -4.026900 0.000000 0.000000 0.000000 2.741048 -21.577854 -2.389612 1.763590 18.972716 1.736673 1.950892 -0.221709 0.822921 0.000000 0.000000 0.000000 2.522886 -16.027283 1.343549 2.603636 15.277527 -3.728016 2.392394 -1.828642 1.154660 0.000000 0.000000 0.000000 
791.638672 -91.144066 1078.886963 -8.822496 8.644110 0.256792 -1.721838 4.727239 4.332611 -2.449172 -0.997573 -0.894183 -2.344890 0.837944 0.823505 -0.187831 -4.865383 4.492196 0.000000 0.000000 0.000000 1.947349 0.228658 -1.575574 6.252665 0.470898 2.546464 7.476997 -75.553545 -12.388990 0.000000 0.000000 0.000000 0.701651 5.238768 4.717613 -0.891783 3.760966 -10.823586 -1.419210 -11.825696 -5.257890 0.000000 0.000000 0.000000 3.167879 -24.119926 -2.752555 2.074707 22.473326 2.906108 2.293440 -0.273846 0.958767 0.000000 0.000000 0.000000 2.705525 -17.038665 1.761647 2.913244 16.525004 -3.869778 2.669075 -1.882823 1.268112 0.000000 0.000000 0.000000 
797.168762 -90.833054 1080.254028 -10.254355 8.983987 -0.298469 -1.291202 4.641706 4.702277 -2.165951 -0.787453 -1.045276 -2.024590 0.769361 0.853872 -0.327269 -4.689181 5.092946 0.000000 0.000000 0.000000 2.615941 0.470722 -2.028530 6.543690 0.910759 1.864460 7.614040 -83.431676 -14.176902 0.000000 0.000000 0.000000 0.458912 5.577216 4.663935 -0.643867 4.225008 -10.065310 -1.385751 -15.174679 -5.438529 0.000000 0.000000 0.000000 3.471339 -27.186447 -3.498999 2.248806 27.594721 4.974664 2.389572 -0.996559 1.038216 0.000000 0.000000 0.000000 2.804787 -17.816722 2.535756 3.326708 18.099697 -4.224431 3.034000 -1.952423 1.414519 0.000000 0.000000 0.000000 
